<svg xmlns="http://www.w3.org/2000/svg" xmlns:xlink="http://www.w3.org/1999/xlink" width="540" height="540"><defs><path id="a" d="M.4.017h36.088v83.211H.4z"/></defs><g fill="#fff" fill-rule="evenodd"><rect width="539" height="539" x=".5" y=".5" stroke="#000" stroke-opacity=".15" rx="4"/><path fill="#FBAA29" d="M431.824 244.46c1.883-1.824 3.817-3.833 5.188-5.767 3.252-4.526 4.895-10 4.895-16.459 0-4.964-1.279-9.545-3.78-13.742-2.339-3.668-5.682-5.492-10.103-5.492-4.42 0-7.726 1.824-9.954 5.492-2.612 4.197-3.929 8.778-3.929 13.742 0 6.459 1.627 11.933 4.896 16.46 1.37 1.952 3.545 4.16 5.207 5.821.931 1.423 1.46 2.974 1.535 4.654.092 6.679-4.932 55.857-4.97 55.986-.182.967-.035 2.519.219 3.395.877 3.102 3.764 5.347 7.09 5.347 3.323 0 6.154-2.245 7.104-5.31.311-.73.401-2.483.293-3.395-3.434-29.017-5.207-49.399-5.134-56.023 0-1.699.493-3.267 1.443-4.709"/><path fill="#F26722" fill-opacity=".95" d="M275.713 301.55c-.746 0-1.662.24-2.168.554-5.496 3.66-9.763 3.032-12.538-1.712-1.904-3.25-2.844-9.658-2.844-17.17 0-7.514.94-14.067 2.844-17.317 2.775-4.745 7.042-5.348 12.538-1.711.506.338 1.422.553 2.168.553 2.506 0 4.557-2.046 4.557-4.577 0-2.021-1.976-3.66-3.158-4.333-2.723-1.517-7.666-3.444-11.475-3.059-4.485.433-7.522 1.952-10.968 5.997-3.45 4.047-5.57 13.272-5.57 24.421v.049c0 11.176 2.12 20.23 5.57 24.277 3.446 4.047 6.483 5.565 10.968 6.021 3.809.36 8.752-1.566 11.475-3.084 1.182-.65 3.158-2.286 3.158-4.334 0-2.528-2.05-4.576-4.557-4.576m-95.515 7.49v-51.733a4.577 4.577 0 014.581-4.576c2.53 0 4.603 2.048 4.603 4.576v2.553c3.111-4.24 9.26-7.344 15.574-7.129 2.46.071 4.365 2.215 4.365 4.697 0 2.432-1.906 4.432-4.34 4.576h-.049l-.265.022c-.264 0-.578-.022-.916-.095-.747-.071-1.325-.071-1.857-.071-4.316 0-7.545 1.78-9.328 3.973-2.098 2.552-3.158 5.418-3.158 8.548l-.026 34.659c0 2.553-2.072 4.625-4.58 4.625-2.554 0-4.604-2.072-4.604-4.625m111.308-65.871c-2.798 0-5.112-2.288-5.112-5.104 0-2.843 2.314-5.131 5.112-5.131 2.82 0 5.11 2.288 5.11 5.13a5.11 5.11 0 01-5.11 5.105m-165.045 70.496a4.559 4.559 0 01-3.279-1.373 4.568 4.568 0 01-1.373-3.302l.023-1.564c-2.843 4.287-6.894 6.239-12.03 6.264-3.833.022-7.979-3.204-10.8-8.069C96.35 300.996 95 293.648 95 283.03c0-10.31 1.374-17.897 4.074-22.52 2.845-4.866 6.364-7.345 8.582-7.684.965-.12 1.833-.193 2.676-.193 4.074 0 8.704 2.264 11.477 6.914v-2.168c0-2.553 2.097-4.65 4.652-4.65 2.58 0 4.63 2.097 4.63 4.65v51.588c0 2.625-2.05 4.697-4.63 4.697m-12.994-52.672c-6.053 0-8.318 10.017-8.318 22.372 0 12.357 1.929 22.374 8.318 22.374 6.653 0 8.294-10.017 8.294-22.374 0-12.355-.845-22.372-8.294-22.372m37.704 47.613a5.039 5.039 0 01-5.038 5.059c-2.772 0-5.038-2.264-5.038-5.06v-89.833c0-2.794 2.266-5.058 5.038-5.058a5.039 5.039 0 015.038 5.058v89.834zm19.624 0c0 2.795-2.265 5.059-5.037 5.059a5.04 5.04 0 01-5.04-5.06v-89.833a5.04 5.04 0 015.04-5.058c2.772 0 5.037 2.264 5.037 5.058v89.834zm125.724 0c0 2.795-2.243 5.059-5.038 5.059-2.772 0-5.04-2.264-5.04-5.06v-50.84a5.035 5.035 0 015.04-5.034 5.02 5.02 0 015.038 5.034v50.84z"/><g transform="translate(305.57 252.617)"><mask id="b" fill="#fff"><use xlink:href="#a"/></mask><path fill="#F26722" fill-opacity=".95" d="M32.415 7.893C29.569 3.027 26.049.547 23.83.21a21.338 21.338 0 00-2.675-.193c-4.074 0-8.702 2.263-11.474 6.912V4.762c0-2.553-2.098-4.649-4.654-4.649C2.448.113.4 2.21.4 4.762v73.82a4.631 4.631 0 004.628 4.646c2.507 0 4.581-2.023 4.629-4.528.025-.047 0-23.072 0-23.891 2.845 4.287 6.894 6.238 12.028 6.262 3.836.024 7.98-3.203 10.777-8.068 2.676-4.625 4.026-11.971 4.026-22.591 0-10.31-1.373-17.896-4.073-22.519M18.02 53.121c-6.652 0-8.316-10.016-8.316-22.373 0-12.356.869-22.373 8.316-22.373 6.027 0 8.318 10.017 8.318 22.373 0 12.357-1.928 22.373-8.318 22.373" mask="url(#b)"/></g><path fill="#F26722" fill-opacity=".95" d="M242.251 285.315h-23.866c-.193 4.457.602 10.454 1.784 14.019.698 2.094 2.7 6.238 6.919 6.238 4.22 0 6.677-3.517 7.16-6.767.772-5.012 10.006-4.626 8.703 2.07-1.543 7.947-7.016 12.813-15.863 12.813-5.495 0-9.885-2.336-13.5-7.95-3.57-5.562-4.436-15.846-4.436-22.902 0-7.925 1.447-14.573 3.109-19.437 1.544-4.48 4.968-10.669 14.827-10.669 14.585 0 17.044 16.45 17.044 30.707 0 1.012-.867 1.878-1.881 1.878zm-7.521-6.72c0-8.667-2.508-17.338-8.607-17.338-6.1 0-7.714 8.67-7.714 17.363l16.321-.025zm145.902 6.72h-23.867c-.194 4.457.627 10.454 1.808 14.019.674 2.094 2.676 6.238 6.894 6.238 4.22 0 6.68-3.517 7.162-6.767.771-5.012 10.005-4.626 8.702 2.07-1.544 7.947-7.016 12.813-15.864 12.813-5.472 0-9.885-2.336-13.5-7.95-3.568-5.562-4.435-15.846-4.435-22.902 0-7.925 1.47-14.573 3.134-19.437 1.519-4.48 4.965-10.669 14.801-10.669 14.587 0 17.07 16.45 17.07 30.707 0 1.012-.893 1.878-1.905 1.878zm-7.521-6.72c0-8.667-2.51-17.338-8.607-17.338-6.1 0-7.715 8.67-7.715 17.363l16.322-.025zm34.089 2.267c-3.593-3.06-7.57-5.588-10.03-8.455-3.35-3.877-.748-10.19 3.037-10.813 2.122-.338 4.701.169 6.822 1.179.676.385 1.447.65 2.29.65 2.51 0 4.51-2.048 4.51-4.527a4.525 4.525 0 00-2.771-4.192l-.05-.022c-6.51-2.578-14.272-3.54-20.082 2.624-5.834 6.166-5.232 16.354.65 22.062 3.376 3.3 10.366 7.946 12.681 11.512 5.74 8.838-1.95 17.028-10.824 12.306h-.023a4.385 4.385 0 00-2.484-.746c-2.483 0-4.508 2.023-4.508 4.528 0 .385.073.77.143 1.13.194.917.677 1.786 1.544 2.387.024.023.458.313.652.434 5.57 3.515 13.79 4.093 19.648-.555 9.112-7.225 8.728-21.052-1.206-29.502"/></g></svg>