<svg width="540" height="540" xmlns="http://www.w3.org/2000/svg" xmlns:xlink="http://www.w3.org/1999/xlink"><defs><path id="a" d="M.387 1.136h34.921v80.668H.387z"/></defs><g fill="none" fill-rule="evenodd"><rect x=".5" y=".5" width="539" height="539" rx="4" fill="#FFF" stroke="#000" stroke-opacity=".15"/><path d="M269.87 315.132c-.722 0-1.609.234-2.098.539-5.318 3.547-9.448 2.939-12.132-1.66-1.843-3.15-2.753-9.363-2.753-16.646 0-7.284.91-13.636 2.753-16.787 2.684-4.6 6.814-5.185 12.132-1.66.49.329 1.376.537 2.098.537 2.425 0 4.41-1.984 4.41-4.437 0-1.96-1.912-3.548-3.057-4.2-2.635-1.472-7.418-3.34-11.103-2.966-4.34.42-7.279 1.892-10.614 5.814-3.337 3.923-5.39 12.866-5.39 23.675v.047c0 10.834 2.053 19.611 5.39 23.535 3.335 3.923 6.274 5.395 10.614 5.837 3.685.35 8.468-1.518 11.103-2.99 1.145-.63 3.057-2.216 3.057-4.202 0-2.45-1.985-4.436-4.41-4.436M177.443 322.393v-50.152a4.433 4.433 0 0 1 4.434-4.436c2.448 0 4.454 1.986 4.454 4.436v2.475c3.01-4.11 8.96-7.12 15.07-6.91 2.38.069 4.224 2.147 4.224 4.553a4.451 4.451 0 0 1-4.2 4.436h-.047l-.257.022c-.255 0-.56-.022-.886-.093-.723-.069-1.283-.069-1.797-.069-4.177 0-7.301 1.726-9.027 3.852-2.03 2.474-3.055 5.253-3.055 8.286l-.025 33.6c0 2.475-2.006 4.484-4.433 4.484-2.471 0-4.455-2.009-4.455-4.484M285.152 258.536c-2.707 0-4.946-2.218-4.946-4.949 0-2.756 2.239-4.974 4.946-4.974 2.729 0 4.945 2.218 4.945 4.974a4.95 4.95 0 0 1-4.945 4.949" fill="#F26722"/><path d="M430.347 243.546c2.405-2.334 4.875-4.903 6.625-7.378 4.154-5.791 6.252-12.795 6.252-21.058 0-6.352-1.633-12.214-4.828-17.583-2.986-4.694-7.256-7.027-12.901-7.027s-9.868 2.333-12.713 7.027c-3.336 5.37-5.018 11.23-5.018 17.583 0 8.263 2.078 15.267 6.253 21.058 1.75 2.499 4.527 5.324 6.65 7.449 1.189 1.82 1.865 3.805 1.96 5.954.118 8.546-6.3 71.467-6.346 71.632-.234 1.237-.046 3.222.278 4.344 1.12 3.969 4.808 6.84 9.054 6.84 4.245 0 7.86-2.871 9.074-6.793.397-.935.512-3.177.374-4.344-4.386-37.126-6.65-63.204-6.557-71.679 0-2.173.63-4.18 1.843-6.025m-.582 79.22c0 2.337-1.867 4.228-4.152 4.228-2.287 0-4.153-1.891-4.153-4.228 0-2.31 1.866-4.203 4.153-4.203 2.285 0 4.152 1.893 4.152 4.203" fill="#FBAA29"/><path d="M125.444 326.877a4.407 4.407 0 0 1-3.173-1.33c-.863-.842-1.328-1.986-1.328-3.202l.021-1.516c-2.75 4.156-6.67 6.048-11.64 6.072-3.71.022-7.722-3.106-10.451-7.822-2.567-4.483-3.873-11.606-3.873-21.9 0-9.994 1.33-17.35 3.942-21.832 2.754-4.717 6.159-7.12 8.305-7.449.933-.116 1.774-.186 2.589-.186 3.943 0 8.423 2.195 11.107 6.702v-2.102c0-2.475 2.028-4.507 4.5-4.507 2.497 0 4.481 2.032 4.481 4.507v50.012c0 2.545-1.984 4.553-4.48 4.553m-12.574-51.062c-5.857 0-8.049 9.71-8.049 21.688 0 11.98 1.866 21.69 8.05 21.69 6.437 0 8.024-9.71 8.024-21.69 0-11.978-.817-21.688-8.025-21.688M149.355 321.972c0 2.71-2.169 4.905-4.875 4.905-2.683 0-4.876-2.195-4.876-4.905v-87.088c0-2.709 2.193-4.903 4.876-4.903 2.706 0 4.875 2.194 4.875 4.903v87.088zM168.344 321.972c0 2.71-2.192 4.905-4.874 4.905-2.707 0-4.877-2.195-4.877-4.905v-87.088c0-2.709 2.17-4.903 4.877-4.903 2.682 0 4.874 2.194 4.874 4.903v87.088zM290.003 321.972c0 2.71-2.17 4.905-4.875 4.905-2.682 0-4.877-2.195-4.877-4.905v-49.286a4.877 4.877 0 0 1 4.877-4.88 4.861 4.861 0 0 1 4.875 4.88v49.286z" fill="#F26722"/><g transform="translate(298.762 266.576)"><mask id="b" fill="#fff"><use xlink:href="#a"/></mask><path d="M31.367 8.772c-2.754-4.717-6.16-7.122-8.306-7.449a20.611 20.611 0 0 0-2.59-.187c-3.94 0-8.42 2.194-11.102 6.701V5.736c0-2.475-2.03-4.506-4.504-4.506C2.37 1.23.387 3.26.387 5.736V77.3c0 2.498 2.005 4.505 4.478 4.505 2.427 0 4.433-1.961 4.48-4.39.024-.046 0-22.367 0-23.161 2.753 4.156 6.67 6.048 11.64 6.07 3.71.024 7.721-3.104 10.428-7.821 2.589-4.484 3.895-11.605 3.895-21.9 0-9.995-1.328-17.35-3.941-21.831M17.438 52.618c-6.437 0-8.046-9.71-8.046-21.69 0-11.978.84-21.69 8.046-21.69 5.832 0 8.05 9.712 8.05 21.69 0 11.98-1.866 21.69-8.05 21.69" fill="#F26722" mask="url(#b)"/></g><path d="M237.49 299.395h-23.094c-.187 4.32.582 10.134 1.725 13.59.676 2.03 2.614 6.047 6.696 6.047 4.083 0 6.461-3.409 6.929-6.56.747-4.859 9.683-4.484 8.42 2.007-1.492 7.705-6.788 12.422-15.35 12.422-5.317 0-9.565-2.266-13.063-7.707-3.454-5.392-4.292-15.362-4.292-22.203 0-7.682 1.4-14.128 3.008-18.842 1.495-4.343 4.808-10.343 14.348-10.343 14.113 0 16.493 15.947 16.493 29.768 0 .98-.84 1.82-1.82 1.82zm-7.278-6.515c0-8.402-2.427-16.809-8.329-16.809-5.902 0-7.464 8.407-7.464 16.834l15.793-.025zM371.397 299.395H348.3c-.187 4.32.607 10.134 1.75 13.59.652 2.03 2.59 6.047 6.671 6.047 4.084 0 6.463-3.409 6.93-6.56.746-4.859 9.682-4.484 8.421 2.007-1.494 7.705-6.79 12.422-15.35 12.422-5.296 0-9.566-2.266-13.065-7.707-3.452-5.392-4.291-15.362-4.291-22.203 0-7.682 1.421-14.128 3.032-18.842 1.47-4.343 4.805-10.343 14.323-10.343 14.115 0 16.518 15.947 16.518 29.768 0 .98-.864 1.82-1.843 1.82zm-7.278-6.515c0-8.402-2.428-16.809-8.33-16.809-5.903 0-7.465 8.407-7.465 16.834l15.795-.025zM397.105 295.077c-3.477-2.965-7.325-5.417-9.706-8.196-3.241-3.759-.723-9.878 2.94-10.483 2.053-.327 4.549.164 6.601 1.143.654.374 1.4.63 2.216.63 2.428 0 4.364-1.985 4.364-4.388a4.387 4.387 0 0 0-2.682-4.064l-.048-.022c-6.3-2.499-13.81-3.432-19.432 2.544-5.646 5.978-5.063 15.854.628 21.388 3.267 3.199 10.032 7.704 12.272 11.16 5.555 8.569-1.888 16.508-10.475 11.93h-.021a4.237 4.237 0 0 0-2.404-.723c-2.403 0-4.362 1.961-4.362 4.39 0 .373.07.747.138 1.096.188.888.655 1.73 1.494 2.313.023.022.444.303.631.42 5.389 3.409 13.344 3.969 19.012-.537 8.818-7.004 8.447-20.409-1.166-28.6" fill="#F26722"/></g></svg>
